<svg width="300" height="300" viewBox="0 0 300 300" fill="none" xmlns="http://www.w3.org/2000/svg">
<path d="M27.0677 254.887L34.1729 251.842L34.2857 251.391C40.7143 233.459 37.1053 207.068 24.2481 177.406L21.5414 171.203L71.2782 149.662L102.632 222.18L112.218 218.008L124.06 245.414L114.586 249.474L106.805 231.429L40.6015 260.188L48.3835 278.233L38.9098 282.293L27.0677 254.887ZM35.4135 176.391L35.8647 177.406C46.1278 202.895 49.8496 226.128 46.4662 244.511L46.1278 246.541L92.9323 226.241L65.6391 163.195L35.4135 176.391Z" fill="black"/>
<path d="M127.895 125.188L139.962 120L212.143 186.09L200.639 191.053L184.06 175.376L137.368 195.564V218.346L126.541 222.97L127.895 125.188ZM137.368 184.85L176.391 167.932L137.481 131.278L137.368 184.85Z" fill="black"/>
<path d="M238.872 171.88C220.714 172.105 204.586 161.504 197.03 144.361C186.541 120.789 196.692 94.1729 220.15 83.6842C226.015 81.0902 231.992 79.7368 238.195 79.6241C250.376 79.5113 261.654 84.3609 270.113 93.2707L258.947 98.2331C252.519 92.8195 245.075 90 237.406 90.1128C233.008 90.1128 228.609 91.1278 224.323 93.0451C206.729 100.94 199.286 121.353 207.519 139.624C213.496 153.158 225.902 161.391 239.774 161.278C244.399 161.278 249.023 160.263 253.421 158.233C265.376 152.932 272.256 142.556 272.707 129.023L283.872 124.06C285.338 142.782 275.188 159.812 257.594 167.707C251.504 170.414 245.301 171.88 238.872 171.88Z" fill="black"/>
<path fill-rule="evenodd" clip-rule="evenodd" d="M0 0H300V300H0V0ZM5 5V295H295V5H5Z" fill="black"/>
</svg>
