<svg width="159" height="123" viewBox="0 0 159 123" fill="none" xmlns="http://www.w3.org/2000/svg">
<path d="M4.24059 105.932L8.50375 104.105L8.57142 103.835C12.4286 93.0752 10.2631 77.2406 2.54886 59.4436L0.924805 55.7218L30.7669 42.797L49.5789 86.3083L55.3308 83.8045L62.4361 100.248L56.7519 102.684L52.0827 91.8571L12.3609 109.113L17.0301 119.94L11.3459 122.376L4.24059 105.932ZM9.24811 58.8346L9.51879 59.4436C15.6767 74.7368 17.9098 88.6767 15.8797 99.7067L15.6767 100.925L43.7594 88.7443L27.3834 50.9173L9.24811 58.8346Z" fill="black"/>
<path d="M64.7368 28.1128L71.9774 25L115.286 64.6541L108.383 67.6315L98.4361 58.2255L70.421 70.3383V84.0075L63.9248 86.7819L64.7368 28.1128ZM70.421 63.9097L93.8346 53.7594L70.4887 31.7669L70.421 63.9097Z" fill="black"/>
<path d="M131.323 56.1278C120.429 56.2631 110.752 49.9022 106.218 39.6165C99.9248 25.4737 106.015 9.50373 120.09 3.2105C123.609 1.65411 127.195 0.842078 130.917 0.774409C138.226 0.706739 144.992 3.61651 150.068 8.96238L143.368 11.9398C139.511 8.6917 135.045 6.99998 130.444 7.06764C127.805 7.06764 125.165 7.67666 122.594 8.82704C112.038 13.5639 107.571 25.812 112.511 36.7744C116.098 44.8947 123.541 49.8346 131.865 49.7669C134.639 49.7669 137.414 49.1579 140.053 47.9398C147.226 44.7594 151.353 38.5338 151.624 30.4135L158.323 27.4361C159.203 38.6691 153.113 48.8872 142.556 53.624C138.902 55.2481 135.18 56.1278 131.323 56.1278Z" fill="black"/>
</svg>
